# xmcd
#
# Track frame offsets: 
#        150
#        12114
#        30045
#        49237
#        64918
#        77948
#        94909
#        110488
#        132206
#        149450
#        168002
#        179504
#        193328
#        207026
#        229987
#
# Disc length: 3354 seconds
#
# Revision: 1
# Processed by: cddbd v1.5.2PL0 Copyright (c) Steve Scherf et al.
# Submitted via: ExactAudioCopyFreeDBPlugin 1.0
#
DISCID=cd0d180f
DTITLE=Jem Cooke - I am Jem Cooke
DYEAR=2011
DGENRE=Soul
TTITLE0=Little Ray
TTITLE1=Playing In Dirt
TTITLE2=I Was In Love
TTITLE3=You And Me
TTITLE4=Let Me
TTITLE5=Miss You
TTITLE6=Party For One
TTITLE7=City Life
TTITLE8=Disco
TTITLE9=Fallen
TTITLE10=Step One
TTITLE11=Tarantino
TTITLE12=Move On Over
TTITLE13=Hula
TTITLE14=Little Ray (Remix)
EXTD=
EXTT0=Little Ray
EXTT1=
EXTT2=
EXTT3=
EXTT4=
EXTT5=
EXTT6=
EXTT7=
EXTT8=
EXTT9=
EXTT10=
EXTT11=
EXTT12=
EXTT13=
EXTT14=
PLAYORDER=
